<?xml version="1.0" standalone="no"?>
<!DOCTYPE svg PUBLIC "-//W3C//DTD SVG 1.1//EN" "http://www.w3.org/Graphics/SVG/1.1/DTD/svg11.dtd" >
<svg>
<metadata>
Created by Shifticons.com 20110222 at Wed May 30 11:07:14 2012

The Weightshift Workshop LLC
</metadata>
<defs>
<font id="Shifticons-Order1600" horiz-adv-x="800" >
  <font-face 
    font-family="Shifticons"
    font-weight="400"
    font-stretch="normal"
    units-per-em="1000"
    panose-1="0 0 0 0 0 0 0 0 0 0"
    ascent="750"
    descent="-250"
    bbox="10 -0.00018549 970 908.5"
    underline-thickness="50"
    underline-position="-50"
    unicode-range="U+000D-E02B"
  />
<missing-glyph horiz-adv-x="250" 
 />
    <glyph glyph-name=".notdef" horiz-adv-x="250" 
 />
    <glyph glyph-name=".null" horiz-adv-x="0" 
 />
    <glyph glyph-name="uni000D" unicode="&#xd;" horiz-adv-x="250" 
 />
    <glyph glyph-name="uni0000" horiz-adv-x="0" 
 />
    <glyph glyph-name="uni0000" horiz-adv-x="0" 
 />
    <glyph glyph-name="space" unicode=" " horiz-adv-x="250" 
 />
    <glyph glyph-name="uni00A0" unicode="&#xa0;" horiz-adv-x="250" 
 />
    <glyph glyph-name="uni2000" unicode="&#x2000;" horiz-adv-x="375" 
 />
    <glyph glyph-name="uni2001" unicode="&#x2001;" horiz-adv-x="751" 
 />
    <glyph glyph-name="uni2002" unicode="&#x2002;" horiz-adv-x="375" 
 />
    <glyph glyph-name="uni2003" unicode="&#x2003;" horiz-adv-x="751" 
 />
    <glyph glyph-name="uni2004" unicode="&#x2004;" horiz-adv-x="250" 
 />
    <glyph glyph-name="uni2005" unicode="&#x2005;" horiz-adv-x="187" 
 />
    <glyph glyph-name="uni2006" unicode="&#x2006;" horiz-adv-x="125" 
 />
    <glyph glyph-name="uni2007" unicode="&#x2007;" horiz-adv-x="125" 
 />
    <glyph glyph-name="uni2008" unicode="&#x2008;" horiz-adv-x="93" 
 />
    <glyph glyph-name="uni2009" unicode="&#x2009;" horiz-adv-x="150" 
 />
    <glyph glyph-name="uni200A" unicode="&#x200a;" horiz-adv-x="41" 
 />
    <glyph glyph-name="uni202F" unicode="&#x202f;" horiz-adv-x="150" 
 />
    <glyph glyph-name="uni205F" unicode="&#x205f;" horiz-adv-x="187" 
 />
    <glyph glyph-name="uniE000" unicode="&#xe000;" horiz-adv-x="850" 
d="M808.01 128.421v670.619l-494.319 78.0508q-33.916 5.36816 -64.6895 -9.63965t-38.3408 -45.2402l-1.52051 -6.1709q-4.11621 -16.4082 4.51367 -30.958q8.62988 -14.5508 24.9971 -18.8115l449.359 -117.22zM208.01 799.051zM319.38 906.74l520.62 -82.0498v-731.54
l-120 19.5303v-112.681l-484.16 120.78q-25.2061 6.31641 -41.4834 26.6807q-16.2764 20.3633 -16.2764 46.0898q0.0996094 606.961 0.139648 607.66q-0.74707 10.8594 2.08008 22.1094l1.77051 6.15039q10.623 42.5088 51.7197 63.3916q41.0967 20.8838 85.5898 13.8779z
M660 76.8408v549.04l-420 109.55v-541.87q0 -11.7324 11.3701 -14.5498zM780 163.69v609.73l-469.86 74.0498q-22.5527 3.55469 -44.0908 -5.52344q-21.5391 -9.07715 -26.0186 -26.9971l-1.29004 -6.14941q-2.65723 -10.625 8.46973 -13.5l472.79 -123.07v-498.77z
M10 212.23v0v0v0v0z" />
    <glyph glyph-name="uniE001" unicode="&#xe001;" horiz-adv-x="680" 
d="M340 860.271q89.4863 0 165.521 -44.7754q76.0352 -44.7744 120.257 -121.77t44.2217 -167.615q0 -64.5342 -30.126 -138.906q-30.125 -74.373 -67.498 -129.672q-37.3721 -55.2998 -86.3525 -111.621q-48.9805 -56.3223 -70.3447 -76.9727t-35.8184 -33.5088
l-39.8604 -35.4297l-39.8594 35.4297q-14.3652 12.7656 -35.8076 33.4922t-70.3672 76.9922t-86.3311 111.6q-37.4053 55.333 -67.5205 129.696q-30.1143 74.3633 -30.1143 138.9q0 90.6201 44.2217 167.615q44.2207 76.9951 120.257 121.77
q76.0352 44.7754 165.521 44.7754zM340 80.2705q10.9727 9.76953 29.1816 27.1758q18.209 17.4072 64.7568 69.9082t82.123 103.467t64.7568 119.31q29.1816 68.3447 29.1816 125.979q0 113.57 -79.0791 193.865t-190.921 80.2949t-190.921 -80.2949t-79.0791 -193.865
q0 -57.6348 27.8096 -124.758q27.8105 -67.123 67.5 -121.752q39.6904 -54.6289 79.3809 -101.024q39.6895 -46.3955 67.5 -72.3506zM340 680.271q62.0195 0 106.01 -43.9883q43.9902 -43.9893 43.9902 -106.012q0 -62.0254 -43.9873 -106.013t-106.013 -43.9873
t-106.013 43.9873t-43.9873 106.013q0 62.0244 43.9873 106.013q43.9873 43.9873 106.013 43.9873zM340 440.271q37.2227 0 63.6113 26.3887t26.3887 63.6113t-26.3887 63.6113t-63.6113 26.3887t-63.6113 -26.3887t-26.3887 -63.6113t26.3887 -63.6113t63.6113 -26.3887z
" />
    <glyph glyph-name="uniE002" unicode="&#xe002;" horiz-adv-x="860" 
d="M550 120v60h-136.31l164.319 410.78l164.311 -410.78h-132.32v-60h-60zM502.32 240h151.37l-75.6904 189.22zM248.01 356.19q-49.6279 0 -84.8135 35.1855q-35.1865 35.1865 -35.1865 84.8145t35.1865 84.8135q35.1865 35.1865 84.8135 35.1865t84.8135 -35.1865
q35.1865 -35.1855 35.1865 -84.8135t-35.1865 -84.8145q-35.1855 -35.1855 -84.8135 -35.1855zM248.01 536.19q-24.8174 0 -42.4082 -17.5908q-17.5918 -17.5918 -17.5918 -42.4092q0 -24.8184 17.5908 -42.4092q17.5918 -17.5908 42.4092 -17.5908t42.4092 17.5908
q17.5908 17.5908 17.5908 42.4092q0 24.8174 -17.5918 42.4092q-17.5908 17.5908 -42.4082 17.5908zM10 720h840v-720h-614.41l-225.59 223.77v496.23zM220 98.6104v77.5801q0 12.5635 -9.86621 23.1865t-22.124 10.623h-77.5801zM790 60v600h-720v-390h118.01
q37.0586 0 64.5244 -28.21q27.4658 -28.209 27.4658 -65.5996v-116.19h510z" />
    <glyph glyph-name="uniE003" unicode="&#xe003;" horiz-adv-x="642" 
d="M74.79 64.79h319.49v188.101l64.7998 72.8994v-325.79h-449.08v547.18h389.681l-53.9902 -55.7998h-270.9v-426.59zM510.37 566.08l0.900391 0.900391l47.7002 -49.5q-1.2002 0 -5.24805 -13.498q-4.04688 -13.4971 -7.49512 -26.9941l-3.44727 -13.498l-267.29 -276.29
l-114.3 -26.1006l-1.7998 0.900391l29.6895 113.4l267.29 274.479q0.015625 2.68555 54 16.2002zM245.78 278.99l-25.2002 -4.50977l-16.1992 -15.29l-7.2002 -28.8008l33.2998 -32.3896l27.8896 6.29004l16.21 16.21l3.59082 25.2002zM612.07 531.88l-41.4102 -40.5098
l12.6104 54l-45.9004 45.9004l-53.0996 -11.7002l40.4902 40.4902q18.8369 18.8369 44.8916 19.0215q26.0537 0.183594 44.208 -18.1123q18.7236 -18.415 18.0088 -43.8701q-0.714844 -25.4541 -19.7988 -45.2197z" />
    <glyph glyph-name="uniE004" unicode="&#xe004;" 
d="M250 660v60h300v-60h-300zM610 596.19q-12.4316 0 -21.2158 8.78809t-8.78418 21.2119v120q0 12.4229 8.78418 21.2119q8.78418 8.78809 21.2158 8.78809t21.2158 -8.78809q8.78418 -8.78906 8.78418 -21.2119v-120q0 -12.4238 -8.78418 -21.2119t-21.2158 -8.78809z
M190 596.19q-12.4316 0 -21.2158 8.78809t-8.78418 21.2119v120q0 12.4229 8.78418 21.2119q8.78418 8.78809 21.2158 8.78809t21.2158 -8.78809q8.78418 -8.78906 8.78418 -21.2119v-120q0 -12.4238 -8.78418 -21.2119t-21.2158 -8.78809zM698.01 720
q37.0586 0 64.5244 -28.21q27.4658 -28.209 27.4658 -65.5996v-120v-480v-26.1904h-780v626.19q0 37.792 25.6543 65.8008t62.3555 28.0088h31.9902v-60h-31.9902q-11.9473 0 -19.9785 -10.3965t-8.03125 -23.4131v-86.1904h660v86.1904q0 12.5674 -9.86035 23.1885
t-22.1299 10.6211h-28.0098v60h28.0098zM250 60v180h-180v-180h180zM250 300v180h-180v-180h180zM490 60v180h-180v-180h180zM490 300v180h-180v-180h180zM730 60v180h-180v-180h180zM730 300v180h-180v-180h180z" />
    <glyph glyph-name="uniE005" unicode="&#xe005;" horiz-adv-x="860" 
d="M482 468.68q32.1191 -7.55566 78.8125 -20.1084q46.6924 -12.5518 77.3242 -21.3271l30.6328 -8.77441q-172.108 -49.876 -227.27 -58.5693q-0.394531 -0.0947266 -1.14355 -0.194336q-0.75 -0.0996094 -1.04688 -0.15625q-7.18848 -1.06934 -10.5498 -1.06934
q-24.8398 0 -42.4199 17.5801t-17.5801 42.4199q0 14.7197 15 97.2197t30 157.64l15 75.1406q37.5703 -185.966 53.2402 -279.801zM428.76 388.48q12.4238 0 21.2119 8.78418t8.78809 21.2158q0 12.4199 -8.79004 21.21t-21.21 8.79004q-12.4316 0 -21.2158 -8.78809
q-8.78418 -8.78906 -8.78418 -21.2119q0 -12.4355 8.78223 -21.2178t21.2178 -8.78223zM849.75 418.48q0 -109.097 -51.0195 -202.459q-51.0205 -93.3633 -140.294 -150.876q-89.2734 -57.5117 -197.687 -65.1455v2.29004h-60v-2.29004q-108.467 7.63672 -198.138 65.125
q-89.6699 57.4883 -141.142 150.917q-51.4707 93.4287 -51.4707 202.438q0 113.938 56.084 210.685q56.083 96.7471 152.683 153.031t210.483 56.2842q113.916 0 210.804 -56.2705t153.292 -153.06t56.4043 -210.67zM400.75 152.29h60v-92.2998
q53.0684 4.82129 106.581 26.9414t94.7588 57.0186l-65.7598 65.0098l42.4199 42.9004l64.75 -63.8008q74.4941 87.9902 83.75 204.23h-86.5v60h86.5q-4.81836 53.0234 -26.8086 106.096q-21.9912 53.0713 -56.9316 94.3643l-64.7695 -66.6699l-42.4199 42.4404
l64.7695 64.7891q-100.795 85.29 -232.34 85.29q-131.804 0 -232.32 -85.1299l64.75 -64.5098l-42.4199 -41.9502l-64.7695 65.7207q-34.9277 -41.2871 -56.916 -94.3535q-21.9893 -53.0664 -26.8145 -106.087h90.4902v-60h-90.4902q9.24316 -116.075 83.8799 -204.22
l64.8701 62.8398l42.6699 -42.4199l-64.25 -64.75q88.085 -74.5742 203.32 -83.75v92.2998z" />
    <glyph glyph-name="uniE006" unicode="&#xe006;" horiz-adv-x="860" 
d="M615.301 684.36q-72.4053 0 -123.511 -50.5801l-61.7998 -61.0508l-61.7598 61.04q-51.167 50.5908 -123.52 50.5908q-72.3203 0 -123.551 -50.5908q-51.1074 -50.5615 -51.1699 -122.069q0 -71.5098 51.1504 -122.05l308.85 -305.29l308.83 305.229
q51.1699 50.5918 51.1699 122.11q0 71.4678 -51.1699 122.09q-51.1855 50.5703 -123.52 50.5703zM615.301 744.36q96.9619 0 165.72 -67.8906q68.9805 -68.2246 68.9805 -164.77q0 -96.5664 -68.9805 -164.771l-308.83 -305.25l-42.1904 -41.6797l-42.1895 41.6797
l-308.85 305.29q-68.9609 68.1846 -68.9609 164.771q0.0478516 96.5283 68.9805 164.689q68.7363 67.9307 165.74 67.9307q96.998 0 165.7 -67.9102l19.5693 -19.3604l19.6104 19.3799q68.666 67.8906 165.7 67.8906z" />
    <glyph glyph-name="uniE007" unicode="&#xe007;" horiz-adv-x="920" 
d="M10 660h900v-573.81q0 -36.6875 -27.0908 -61.4385q-27.0908 -24.752 -64.8994 -24.752h-720q-37.4062 0 -62.708 24.5732t-25.3018 61.6172v573.81zM805.59 600h-695.16l347.58 -347.58zM850 86.1904v467.579l-227.32 -226.329l6.54004 -10.04l128.8 -171.21
l-171.199 128.79l-10.0303 7.54004l-118.74 -118.75l-118.72 118.75l-9.98047 -7.54004l-171.09 -128.79l129.03 171.21l8.04004 10.04l-225.33 226.329v-467.579q0 -12.2158 7.69434 -19.2031q7.69531 -6.9873 20.3154 -6.9873h720q13.0742 0 22.5322 7.14551
t9.45801 19.0449z" />
    <glyph glyph-name="uniE008" unicode="&#xe008;" 
d="M698.01 780q37.0586 0 64.5244 -28.21q27.4658 -28.209 27.4658 -65.5996v-686.19h-780v686.19q0 37.792 25.6543 65.8008t62.3555 28.0088h600zM70 60h150v480h-150v-480zM730 60v480h-450v-480h450zM730 600v86.1904q0 12.5635 -9.86621 23.1865t-22.124 10.623h-600
q-11.9414 0 -19.9756 -10.3975t-8.03418 -23.4121v-86.1904h660z" />
    <glyph glyph-name="uniE009" unicode="&#xe009;" 
d="M100 660q37.2764 0 63.6387 -26.3594q26.3613 -26.3594 26.3613 -63.6406q0 -37.2822 -26.3584 -63.6416q-26.3594 -26.3584 -63.6416 -26.3584t-63.6416 26.3584q-26.3584 26.3594 -26.3584 63.6416t26.3584 63.6416q26.3594 26.3584 63.6416 26.3584zM100 540
q12.4053 0 21.2021 8.79785q8.79785 8.79688 8.79785 21.2021t-8.79785 21.2021q-8.79688 8.79785 -21.2021 8.79785t-21.2021 -8.79785q-8.79785 -8.79688 -8.79785 -21.2021t8.79785 -21.2021q8.79688 -8.79785 21.2021 -8.79785zM100 420q37.2764 0 63.6387 -26.3594
q26.3613 -26.3594 26.3613 -63.6406q0 -37.2822 -26.3584 -63.6416q-26.3594 -26.3584 -63.6416 -26.3584t-63.6416 26.3584q-26.3584 26.3594 -26.3584 63.6416t26.3584 63.6416q26.3594 26.3584 63.6416 26.3584zM100 300q12.4053 0 21.2021 8.79785
q8.79785 8.79688 8.79785 21.2021t-8.79785 21.2021q-8.79688 8.79785 -21.2021 8.79785t-21.2021 -8.79785q-8.79785 -8.79688 -8.79785 -21.2021t8.79785 -21.2021q8.79688 -8.79785 21.2021 -8.79785zM100 180q37.2764 0 63.6387 -26.3594
q26.3613 -26.3594 26.3613 -63.6406q0 -37.2822 -26.3584 -63.6416q-26.3594 -26.3584 -63.6416 -26.3584t-63.6416 26.3584q-26.3584 26.3594 -26.3584 63.6416t26.3584 63.6416q26.3594 26.3584 63.6416 26.3584zM100 60q12.4053 0 21.2021 8.79785
q8.79785 8.79688 8.79785 21.2021t-8.79785 21.2021q-8.79688 8.79785 -21.2021 8.79785t-21.2021 -8.79785q-8.79785 -8.79688 -8.79785 -21.2021t8.79785 -21.2021q8.79688 -8.79785 21.2021 -8.79785zM280 543.81q-12.4199 0 -21.21 8.79004t-8.79004 21.21
t8.79004 21.21t21.21 8.79004h480q12.4199 0 21.21 -8.79004t8.79004 -21.21t-8.79004 -21.21t-21.21 -8.79004h-480zM760 363.81q12.4199 0 21.21 -8.79004t8.79004 -21.21t-8.79004 -21.21t-21.21 -8.79004h-480q-12.4199 0 -21.21 8.79004t-8.79004 21.21t8.79004 21.21
t21.21 8.79004h480zM760 123.81q12.4199 0 21.21 -8.79004t8.79004 -21.21t-8.79004 -21.21t-21.21 -8.79004h-480q-12.4199 0 -21.21 8.79004t-8.79004 21.21t8.79004 21.21t21.21 8.79004h480z" />
    <glyph glyph-name="uniE00A" unicode="&#xe00a;" horiz-adv-x="860" 
d="M814.85 709.72q35.4102 -35.4102 35.4102 -84.8594q0 -49.9609 -34.9102 -84.8408l-437.08 -437.579l-101.43 -102.44v144.86v123.81h-122h-144.84l102.43 100.52l437.58 435.69q35.1348 35.1201 84.8398 35.1201q49.7002 0 84.8398 -35.1396zM773.42 582.439
q17.5312 17.6133 17.3301 42.54q-0.203125 24.9268 -17.8301 42.54l-95.6504 95.4004q-18.0303 18.0303 -42.4199 18.0303q-25.8096 0 -42.4199 -16.6104l-437.58 -435.67h181.99v-183.81zM649.85 684.86q18.6533 0 31.8262 -13.1816q13.1738 -13.1816 13.1738 -31.8184
q0 -18.6377 -13.1738 -31.8184q-13.1729 -13.1816 -31.8262 -13.1816t-31.8262 13.1816q-13.1738 13.1807 -13.1738 31.8184q0 18.6367 13.1738 31.8184q13.1729 13.1816 31.8262 13.1816z" />
    <glyph glyph-name="uniE00B" unicode="&#xe00b;" horiz-adv-x="860" 
d="M221.25 400.53l-69.2598 -92.3506l-47.9707 36.0205l110.75 147.66l88.5908 -88.5801l120 180l147.729 -147.75l130.71 235.229l52.4199 -29.1396l-169.3 -304.76l-152.26 152.239l-120 -180zM850 780v-570h-308.96l126.97 -210l-192.97 210h-94.0596l-192.971 -210
l126.971 210h-304.98v570h840zM790 270v450h-720v-450h720z" />
    <glyph glyph-name="uniE00C" unicode="&#xe00c;" horiz-adv-x="860" 
d="M130.01 237.61q0 60 60 60t60 -60t-60 -60t-60 60zM730.01 361.42q49.6279 0 84.8193 -35.1865q35.1904 -35.1865 35.1904 -84.8135q0 -49.6279 -35.1855 -84.8135q-35.1865 -35.1865 -84.8145 -35.1865h-28.0098v43.7695l-31 -28.0996
q-15.6699 -15.6699 -43.4199 -15.6699h-45.5898v43.7695l-22.21 -19.3096q-24.4316 -24.46 -64.6299 -24.46h-37.54q-31.2275 -58.6846 -86.5449 -90.0557q-55.3164 -31.3721 -121.075 -31.3643q-99.3926 0 -169.696 69.7256t-70.3037 168.845q0 99.3457 70.418 170.147
q70.417 70.8018 169.582 70.8018q63.2393 0 119.219 -32.4004q55.9805 -32.4014 88.4014 -85.6992h272.39zM762 185.66q29 15.0654 29 53.8594q0 24.8955 -18.1328 43.3984q-18.1338 18.502 -42.8672 18.502h-309.41l-8.12012 15.3203q-22.167 46.6006 -66.2969 73.8555
q-44.1299 27.2539 -96.1631 27.2539q-74.4678 0 -127.233 -52.6689q-52.7666 -52.6689 -52.7666 -127.091q0 -74.3994 52.7549 -126.959q52.7549 -52.5605 127.245 -52.5605q51.5576 0 95.8242 28.4072q44.2676 28.4082 66.6357 75.4326l8.12012 19.0098h74.5703
q13.376 0 21.2197 7.83008l33.6299 32.6895q19.4785 19.4805 42.4199 19.4805h49.5703v-51.3799l29 31.8994q19.4961 19.4805 41.4297 19.4805h49.5703v-55.7598z" />
    <glyph glyph-name="uniE00D" unicode="&#xe00d;" horiz-adv-x="742" 
d="M683.402 673.49q48.5625 -48.5557 48.5625 -117.418q0 -68.8633 -48.5625 -117.433l-60 -60q-48.6641 -48.6494 -117.42 -48.6494q-52.2891 0 -95.5498 30.6592l-38.6904 -39.4893q34.543 -47.9648 29.8652 -108.484t-47.5645 -103.406l-60.6406 -60.6191
q-48.6338 -48.6504 -117.42 -48.6504q-68.7695 0 -117.42 48.6504q-48.5625 48.5547 -48.5625 117.416t48.5625 117.424l62.8105 62.8096q47.5156 47.5 114.609 47.5q51.1455 0 93.46 -30.1201l38.9102 39.7305q-32.9688 48.0381 -27.5859 107.853
q5.38184 59.8135 47.7959 102.228l60 60q48.666 48.6494 117.42 48.6494q68.7705 0 117.42 -48.6494zM311.623 151.7q25.2148 25.208 29.6875 60.4971q4.47168 35.2891 -12.6582 65.0127l-41.25 -42.1299q-8.80371 -9 -21.4092 -9q-12.2402 0 -21.0205 8.56934
q-8.87598 8.69629 -8.98535 21.1201q-0.108398 12.4238 8.5957 21.3008l41.9697 42.8496q-24.1797 13.8896 -50.5703 13.8896q-42.3008 0 -72.1895 -29.9199l-62.8105 -62.8096q-31.0723 -31.0732 -31.0723 -75q0 -43.9277 31.0723 -75q31.0703 -31.0703 75 -31.0703
t75 31.0703zM640.982 481.07q31.0654 31.0713 31.0635 75.002t-31.0732 74.9873q-31.0703 31.0703 -75 31.0703t-75 -31.0703l-60 -60q-24.6699 -24.6621 -29.6465 -59.1182q-4.97656 -34.457 10.666 -64.002l43.8301 44.75q8.6582 8.90527 21.0898 9.0166
q12.4326 0.111328 21.3301 -8.58594q8.87793 -8.69824 8.99609 -21.1201q0.117188 -12.4219 -8.58594 -21.2998l-45.29 -46.2305q25.1553 -14.4697 52.6201 -14.4697q43.9316 0 75 31.0703z" />
    <glyph glyph-name="uniE00E" unicode="&#xe00e;" horiz-adv-x="680" 
d="M311.99 150v300h60v-300h-60zM191.99 150v300h60v-300h-60zM610 630q24.3203 0 42.1602 -18.4805t17.8398 -41.5195h-58.0098v-483.81q0 -36.6875 -27.0908 -61.4385q-27.0908 -24.752 -64.8994 -24.752h-360q-37.4062 0 -62.708 24.5732t-25.3018 61.6172v483.81
h-61.9902q0 23.0391 17.8398 41.5195t42.1602 18.4805h121.99v26.1904q0 37.792 25.6543 65.8008t62.3555 28.0088h120q37.0586 0 64.5244 -28.21q27.4658 -28.209 27.4658 -65.5996v-26.1904h118.01zM251.99 656.19v-26.1904h180v26.1904q0 12.5674 -9.86035 23.1885
t-22.1299 10.6211h-120q-11.9473 0 -19.9785 -10.3965t-8.03125 -23.4131zM551.99 86.1904v483.81h-61.9902h-300h-58.0098v-483.81q0 -12.2178 7.69141 -19.2041q7.69238 -6.98633 20.3184 -6.98633h360q13.0859 0 22.5381 7.14453q9.45215 7.14355 9.45215 19.0459z
M431.99 150v300h60v-300h-60z" />
    <glyph glyph-name="uniE00F" unicode="&#xe00f;" horiz-adv-x="845" 
d="M835.375 4.97949l-15.1045 -4.97949q-1.35547 3.55859 -4.53613 9.75684q-3.18066 6.19727 -11.9619 20.4043q-8.78125 14.208 -20.6484 27.5498t-30.5957 31.1904q-18.7285 17.8477 -41.8037 31.3262q-23.0762 13.4785 -54.2734 27.958
q-31.1982 14.4795 -68.0039 21.0869q-36.8047 6.60645 -82.9932 10.71q-46.1895 4.10352 -99.2461 -3.16992l-0.0419922 -134.041l-396.166 247.5l396.166 257.916l0.0419922 -133.25q47.1885 -12.5107 94.6328 -33.5967q47.4453 -21.0859 99.4092 -56.3809
q51.9639 -35.2939 95.6826 -79.4482q43.7197 -44.1543 81.209 -106.565t58.2334 -133.967z" />
    <glyph glyph-name="uniE010" unicode="&#xe010;" 
d="M790 510h-60v116.19q0 12.5674 -9.86035 23.1885t-22.1299 10.6211h-600q-11.9473 0 -19.9785 -10.3965t-8.03125 -23.4131v-116.19h-60v116.19q0 37.792 25.6543 65.8008t62.3555 28.0088h600q37.0586 0 64.5244 -28.21q27.4658 -28.209 27.4658 -65.5996v-116.19z
M490 270v-270h-180v270h-224.41l312.42 312.42l312.42 -312.42h-220.43zM370 330v-270h60v270h135.59l-167.58 167.58l-167.58 -167.58h139.57z" />
    <glyph glyph-name="uniE011" unicode="&#xe011;" 
d="M730 210h60v-123.81q0 -36.6875 -27.0908 -61.4385q-27.0908 -24.752 -64.8994 -24.752h-600q-37.4062 0 -62.708 24.5732t-25.3018 61.6172v123.81h60v-123.81q0 -12.2158 7.69434 -19.2031q7.69531 -6.9873 20.3154 -6.9873h600q13.0742 0 22.5322 7.14551
t9.45801 19.0449v123.81zM710.43 450l-312.42 -312.42l-312.42 312.42h224.41v270h180v-270h220.43zM370 390h-139.57l167.58 -167.58l167.58 167.58h-135.59v270h-60v-270z" />
    <glyph glyph-name="uniE012" unicode="&#xe012;" horiz-adv-x="980" 
d="M850 361.9l120 0.00976562l-150 -150l-150 150h120q0 78.9023 -40.1113 147.642t-109.504 109.714t-150.385 40.9746q-105.878 0 -190.899 -70.2402l-38.2002 46.7402q100.81 83.2598 229.1 83.2598q97.0439 0 180.435 -49.6416q83.3906 -49.6406 131.478 -132.15
q48.0879 -82.5088 48.0879 -176.308zM490 60q108.471 0 190.9 68.1006l38.2002 -46.7402q-98.5098 -81.3604 -229.101 -81.3604q-97.6689 0 -180.591 48.3936q-82.9209 48.3945 -131.165 131.779q-48.2441 83.3857 -48.2441 181.728h-120l150 150l150 -150h-120
q0 -126.889 87.665 -214.395t212.335 -87.5059z" />
    <glyph glyph-name="uniE013" unicode="&#xe013;" horiz-adv-x="812" 
d="M802.42 372.421l-372.42 -372.421v256.23h-331.99q-37.4062 0 -62.708 24.5732t-25.3018 61.6172v60q0 37.792 25.6543 65.8008t62.3555 28.0088h331.99v248.61zM98.0098 316.23h391.99v-171.39l227.58 227.58l-227.58 227.579v-163.77h-391.99
q-11.9473 0 -19.9785 -10.3965t-8.03125 -23.4131v-60q0 -12.2178 7.69141 -19.2041q7.69238 -6.98633 20.3184 -6.98633z" />
    <glyph glyph-name="uniE014" unicode="&#xe014;" 
d="M790 298.57l-107.21 -8.75977q-4.00977 -11.8672 -15.9004 -36.0205l68.8105 -81.1904l-123.851 -123.68l-81.3496 69.3301q-11.3457 -5.60938 -36.04 -13.96l-8.84961 -104.29h-175.2l-8.82031 104.29q-30.71 10.377 -36.0303 13l-81.2598 -68.8301l-123.74 123.89
l69.0508 81.3301q-7.03613 14.293 -14.4004 36.0703l-105.21 8.83008v175.21l105.21 8.92969q8.5918 25.3262 13.8896 36.0703l-68.79 81.4502l123.87 124.12l81.29 -68.3301q23.834 11.7314 36.0898 15.8701l8.85059 108.1h175.2l8.87012 -108.09
q6.14941 -2.07617 36.1191 -16.8301l81.3604 68.8096l123.99 -123.87l-68.54 -81.3291q10.3164 -20.9551 15.3799 -36.0508l107.21 -8.83008v-175.239zM654.26 175.72l-59.9902 71.0107l10.9102 18.3398q17.0391 28.9414 25.2402 60.4297l5.84961 20.5703l93.7305 7.72949
v64.7705l-93.7295 7.75977l-6.35059 20.5703q-8.37891 32.1602 -24.96 60.4297l-10.7402 18.3301l60.04 71.0303l-45.8193 45.8594l-70.9404 -59.96l-18.3604 11q-29.7617 17.4707 -60.4697 25.4902l-20.5303 6.32031l-7.72949 94.5996h-64.7998l-7.73047 -94.5898
l-20.5303 -7.28027q-32.1797 -8.40332 -60.46 -25.0195l-18.3496 -10.7607l-70.9297 60.0801l-45.79 -45.8193l60.1094 -71l-10.6201 -18.3203q-16.1592 -27.583 -24.7197 -60.3896l-4.84961 -20.5703l-91.7402 -7.73047v-64.79l91.7402 -7.73926l4.35938 -20.5605
q8.37402 -32.1475 25 -60.4199l10.7803 -18.3301l-60.1201 -70.9697l45.8203 -45.7402l70.9795 60.1602l18.3408 -10.4795q26.7334 -15.71 60.4697 -24.5205l20.5303 -4.41992l7.70996 -90.79h64.7998l7.72949 90.79l20.5303 3.46973q32.2051 8.41016 60.3896 24.9805
l18.3408 10.7598l71.04 -60.0801zM398.01 506.19q49.627 0 84.8135 -35.1865q35.1865 -35.1855 35.1865 -84.8135t-35.1865 -84.8145q-35.1855 -35.1855 -84.8135 -35.1855t-84.8135 35.1855q-35.1865 35.1865 -35.1865 84.8145t35.1865 84.8135
q35.1865 35.1865 84.8135 35.1865zM398.01 326.19q24.8115 0 42.4062 17.5918q17.5938 17.5918 17.5938 42.4082q0 24.8174 -17.5918 42.4092q-17.5908 17.5908 -42.4082 17.5908t-42.4082 -17.5908q-17.5918 -17.5918 -17.5918 -42.4092q0 -24.8184 17.5908 -42.4092
q17.5918 -17.5908 42.4092 -17.5908z" />
    <glyph glyph-name="uniE015" unicode="&#xe015;" horiz-adv-x="812" 
d="M257.5 495h495q21.0381 -2.00684 35.2686 -15.7246q14.2314 -13.7188 14.2314 -33.7656v-396.01q0 -20.5273 -14.4863 -35.0137t-35.0137 -14.4863h-693q-19.7822 0 -34.2344 14.7324q-14.4531 14.7324 -15.2656 34.7676v495q0 20.498 14.501 34.999
q14.502 14.501 34.999 14.501h0.118164h0.144531h0.451172h0.655273h0.847656h1.03125h1.2041h1.37012h0.744141h0.783203h1.67969h0.895508h0.930664h0.966797h1.00098h1.03516h1.06934h1.10254h1.13477h1.16797h1.2002h1.23145h1.26367h1.29395h1.32617h1.35645h1.38672
h1.41797h1.44727h1.47852h1.50781h1.53906h1.56836h1.59863h1.62891h1.65918h1.68945h1.7207h1.75098h1.78223h1.81348h1.84473h1.87793h1.91016h1.94336h1.97656h2.01172h2.0459h2.08301h2.11914h2.1582h2.19727h2.2373h2.28027h2.32422h2.37012h2.41895h2.46973h2.52441
h2.58203h2.64355h2.71191h2.78516h2.86523h2.95605h3.05762h3.17285h3.30957h3.47266h3.67383h3.93359h4.29004h4.82715h5.7832h7.64844q19.7783 0 34.2324 -14.7305q14.4551 -14.7305 15.2676 -34.7695v-49.5z" />
    <glyph glyph-name="uniE016" unicode="&#xe016;" horiz-adv-x="680" 
d="M578.01 540q37.0586 0 64.5244 -28.21q27.4658 -28.209 27.4658 -65.5996v-446.19h-660v446.19q0 37.792 25.6543 65.8008t62.3555 28.0088h31.9902v86.1904q0 86.8467 61.5811 148.423q61.5801 61.5771 148.419 61.5771t148.419 -61.5771
q61.5811 -61.5762 61.5811 -148.423v-86.1904h28.0098zM190 626.19v-86.1904h300v86.1904q0 62.0244 -43.9873 106.013q-43.9873 43.9873 -106.013 43.9873t-106.013 -43.9873q-43.9873 -43.9883 -43.9873 -106.013zM610 60v60h-540v-60h540zM610 180v266.19
q0 12.5674 -9.86035 23.1885t-22.1299 10.6211h-480q-11.9473 0 -19.9785 -10.3965t-8.03125 -23.4131v-266.19h540zM338.01 446.19q49.7061 0 84.8535 -35.1426q35.1465 -35.1436 35.1465 -84.8574t-35.1465 -84.8574q-35.1475 -35.1426 -84.8535 -35.1426
t-84.8525 35.1426q-35.1475 35.1436 -35.1475 84.8574t35.1475 84.8574q35.1465 35.1426 84.8525 35.1426zM370 330h35.5098q0 23.7441 -20.376 45.6221q-20.375 21.8779 -47.124 21.8779t-47.124 -21.8779q-20.376 -21.8779 -20.376 -45.6221h39.4902v-63.96
q16.1318 -7.33984 30 -7.33984t30 7.33984v63.96z" />
    <glyph glyph-name="uniE017" unicode="&#xe017;" horiz-adv-x="602" 
d="M592.28 514.686v-415.79q0 -10.1084 -7.6416 -17.2041t-18.459 -7.0957q-10.7188 0 -17.959 7.05566t-7.24023 17.2441q-96.2627 118.79 -228.591 118.79h-45.8994l100.8 -170.1l-61.1904 -44.0801q-20.8037 -11.0205 -40.5098 12.5996l-125.1 201.58h-67.4902
q-2.56055 1.39453 -6.80859 4.02148q-4.24902 2.62695 -15.1104 11.4414t-19.1621 18.3955q-8.30078 9.58008 -15.1104 24.4014q-6.80859 14.8213 -6.80859 29.9404q0 15.1201 6.48926 29.3955q6.48828 14.2744 15.75 23.8477q9.26074 9.57227 18.5215 16.9854
q9.26172 7.41211 15.75 10.8867l6.48926 3.47461h239.38q132.906 0 228.58 124.2q0 10.1934 7.23633 17.2471q7.23633 7.05273 17.9736 7.05273q10.8232 0 18.4668 -7.09277q7.64355 -7.09375 7.64355 -17.1973zM184.59 332.886q0 4.72559 -3.4873 8.21289t-8.21289 3.4873
h-71.9893q-4.81445 0 -8.70703 -3.52344q-3.89355 -3.52441 -3.89355 -8.17676q0 -4.72656 3.93457 -8.66309t8.66602 -3.93652h71.9893q4.65039 0 8.17578 3.89648q3.52441 3.89551 3.52441 8.70312zM184.59 280.686q0 4.72559 -3.4873 8.21289t-8.21289 3.4873h-71.9893
q-4.81445 0 -8.70703 -3.52344q-3.89355 -3.52441 -3.89355 -8.17676q0 -4.72656 3.93457 -8.66309t8.66602 -3.93652h71.9893q4.65137 0.0078125 8.17578 3.90039q3.52441 3.89355 3.52441 8.69922zM532.88 170.886v270.9q-85.3652 -90.8906 -208.79 -90.8906v-92.7002
q121.526 -0.0136719 208.79 -87.3096z" />
    <glyph glyph-name="uniE018" unicode="&#xe018;" horiz-adv-x="855" 
d="M-64.1426 533.852zM295.857 263.852zM10 314.32l834.81 486.979l-104.36 -695.699l-262.56 75.04l-113.34 -180.641l-109.37 244.28zM310.04 268.601l63.3799 -141.561l76.5801 122.07l105.31 208.06zM691.27 182.09l75.6504 504.29l-605.2 -353.01l99.3203 -28.3799
l325.199 209.82l34.4307 22.2295l-14.3604 -38.5898l-98.2803 -264.021zM380.232 -2.39844z" />
    <glyph glyph-name="uniE019" unicode="&#xe019;" horiz-adv-x="920" 
d="M882.29 321.24q15.4336 0 27.71 2.02051q-37.8115 -39.2607 -105.569 -39.2607h-1.82031q-21.2842 -83.4414 -87.1064 -148.98q-65.8213 -65.5381 -156.395 -100.279q-90.5723 -34.7402 -188.839 -34.7402q-105.209 0 -199.723 42.8955t-160.548 129.995
q66.8252 -61.6602 162.711 -61.6602q100.779 0 171.09 70.3096q-5.60156 -0.799805 -11.2705 -0.799805q-24.9141 0 -41.0186 12.9502q-16.1055 12.9502 -11.0225 31.2139t35.2812 30.8564q-8.13965 -0.860352 -16.04 -0.860352q-35.6348 0 -59.4844 15.7002
t-35.3057 37.6797q20.7617 20.9746 61.6797 23.5703q-87.6387 20.0439 -100.76 86.7793q29.7119 6.80078 48.0898 6.80078q4.18945 0 7.23047 -0.410156q-41.7383 21.0967 -60.6924 51.1768q-18.9551 30.0801 -16.2178 58.3535q134.505 -48.3721 230.9 -98.3203
q26.0957 -13.5459 68.1592 -53.0898q29.7148 75.9277 62.0625 128.835q32.3486 52.9072 78.7979 81.6348q-1.56738 -13.4502 -13.5 -25.8398q30.793 27.0557 70.3096 32.2295q-2.99902 -19.1016 -47.3994 -35.1992q0.845703 0.254883 17.4238 6.40234
q16.5771 6.14746 32.2656 10.5566q15.6895 4.41016 25.4902 4.41016q10.0264 0 12.29 -5.09961q2.43945 -5.28125 -1.39844 -10t-12.0137 -8.08594q-8.17676 -3.36719 -16.0674 -5.73828q-7.8916 -2.37012 -16.3369 -4.34961q-8.44531 -1.97852 -10.043 -2.52637
q-11.168 -3.69043 -20.9404 -7.54004q6.89258 0.660156 14.0801 0.660156q59.1807 0 109.355 -42.1299q50.1748 -42.1289 67.3047 -103.1q2.9043 -10.4775 4.97949 -19.9404q12.6514 -4.57031 31.6797 -4.57031q47.6396 0 74.3906 15.96
q-10.1826 -23.2402 -35.5996 -38.3594q-25.417 -15.1182 -62.4707 -18.1201q29.918 -11.9902 74.2998 -11.9902zM759.99 321.261q4.26855 61.002 -42.4023 118.044q-51.3604 62.7725 -113.463 52.7451q-89.5508 -14.46 -144.135 -183.29q-55.9648 45.418 -105.34 73.543
t-70.7676 33.541l-21.3926 5.41602q19.4688 -16.7363 33.7373 -39.3457q14.2686 -22.6104 13.0059 -48.2979q-1.26367 -25.6875 -29.2432 -38.6064q25.8281 1.43457 44.6816 -3.4043q18.8535 -4.83984 27.8447 -13.7256t11.7812 -19.8916q2.79102 -11.0059 -1.5166 -22.3418
q-4.30664 -11.3359 -14.041 -20.6367q54.5938 -10.2266 41.8828 -46.4492q-13.1455 -37.4619 -79.9355 -68.2139q-49.376 -22.7334 -105.837 -27.9961q124.849 -35.7656 225.616 -23.9521q100.767 11.8145 172.898 56.7607t112.426 102.584q40.2949 57.6367 44.1992 113.518
z" />
    <glyph glyph-name="uniE01A" unicode="&#xe01a;" horiz-adv-x="446" 
d="M280 510h156.43l-45 -180h-111.43v-330h-180v330h-90v180h90v8.44043q0 197.75 179.02 197.75q33.2148 0 102.33 -23.1201q17.0322 -5.70215 25.1699 -8.08984l29.8906 -8.77051l-48.29 -145.27l-26.2402 6q-25.0703 5.67969 -56.9395 5.67969
q-18.4707 0 -21.7051 -4.02539q-3.23535 -4.02539 -3.23535 -27.5947v-1zM344.59 390l15 60h-139.59v60.9902q0 12.8584 0.469727 20.5859q0.46875 7.72852 4.85156 22.9814t12.5498 24.2275q8.16797 8.97559 25.4785 16.4004t41.7207 7.4248q23.4971 0 42.8994 -2.44043
l12.4902 36.7598q-57.5186 19.2607 -81.46 19.2607q-64.6162 0 -91.8076 -31.624q-27.1924 -31.625 -27.1924 -106.126v-68.4404h-90v-60h90v-330h60v330h124.59z" />
    <glyph glyph-name="uniE01B" unicode="&#xe01b;" horiz-adv-x="856" 
d="M477.852 331.3q-2.125 -37.3408 -27.71 -58.1201q-25.6553 -22.25 -63.6309 -22.25q-71.5322 0 -156.43 84.2207q-72.8467 72.4756 -146.564 190.728t-73.5156 156.622q0.0976562 15.5625 10.29 25.4502q9.85254 9.58984 24.9004 9.58984q37.9287 0 155.868 -72.2305
q117.938 -72.2314 191.651 -147.939q89.4043 -91.7295 85.1406 -166.07zM272.361 377.71q1.82422 -1.81348 4.99609 -4.71094q3.1709 -2.89844 4.15332 -3.8291l76.8408 76.8398q-1.12793 1.20801 -3.96387 4.41113q-2.83691 3.2041 -4.66699 5.0791
q-51.7852 53.1992 -127.227 104.342q-75.4424 51.1426 -134.803 80.3887q29.7939 -59.123 81.1426 -134.865q51.3486 -75.7432 103.527 -127.655zM417.932 334.74q1.48047 25.0439 -22.4209 63.5703l-66.7197 -66.7207q33.0039 -20.6602 57.71 -20.6602
q15.585 0 25.1006 8.2207q5.75684 4.67969 6.33008 15.5898zM779.182 73.2197q28.5879 0 66.8994 11.7803q-88.1377 -85 -196.6 -85q-55.7539 0 -105.033 22.9268q-49.2793 22.9277 -81.1973 61.4531q-30.1514 36.1104 -26.5869 86.7998t38.7969 86.3203
q34.4609 35.3896 80.1406 35.3896q47.6045 0 78.3799 -37.8496q16.0234 -20.082 30.252 -55.5654q14.2295 -35.4824 23.3887 -60.9824q9.16016 -25.499 32.3789 -45.3857q23.2197 -19.8867 59.1807 -19.8867zM649.491 60q8.85938 0 17.0303 0.75
q-25.4893 28.7324 -49.8604 94.5098q-17.5254 47.2617 -29.5898 62.3799q-12.4238 15.25 -31.4502 15.25q-20.3398 0 -37.1699 -17.25q-19.1738 -19.3975 -21.8535 -46.9053q-2.67969 -27.5088 12.7139 -45.9248q24.1162 -29.0938 61.7607 -45.9512
q37.6445 -16.8584 78.4189 -16.8584z" />
    <glyph glyph-name="uniE01C" unicode="&#xe01c;" horiz-adv-x="667" 
d="M503.05 323.351l127.29 -127.301q26.3701 -26.3701 26.3701 -63.6299q0 -37.2578 -26.3701 -63.6299l-42.4199 -42.4199q-26.3398 -26.3701 -63.6309 -26.3701q-37.2598 0 -63.6299 26.3701l-127.3 127.29l-127.3 -127.29q-25.4912 -25.4863 -63.6484 -25.4824
q-38.1582 0.00488281 -63.6416 25.5029l-42.4004 42.3994q-26.3691 26.3711 -26.3691 63.6299q0 37.249 26.3691 63.6504l127.271 127.28l-127.27 127.29q-26.3701 26.3682 -26.3701 63.6299q0 37.249 26.3701 63.6494l42.4199 42.4004q25.4639 25.4863 63.623 25.4951
q38.1602 0.0078125 63.6465 -25.4756l127.3 -127.3l127.3 127.3q25.4893 25.4883 63.6494 25.4805q38.1592 -0.0078125 63.6406 -25.5205l42.4004 -42.3994q26.3701 -26.3701 26.3701 -63.6299q0 -37.25 -26.3701 -63.6504zM587.93 111.2q8.79004 8.83691 8.79004 21.21
q0 12.4199 -8.79004 21.21l-169.73 169.73l169.73 169.71q8.79004 8.77344 8.79004 21.21q0 12.3994 -8.79004 21.1895l-42.4199 42.4404q-8.53223 8.49219 -21.2402 8.49219q-12.707 0 -21.1797 -8.47266l-169.73 -169.729l-169.729 169.729
q-8.46777 8.46777 -21.1826 8.46777t-21.1973 -8.46777l-42.46 -42.4395q-8.79004 -8.80469 -8.79004 -21.21q0 -12.4326 8.79004 -21.1904l169.689 -169.729l-169.689 -169.73q-8.79004 -8.77344 -8.79004 -21.21q0 -12.4014 8.79004 -21.1895l42.4199 -42.4404
q8.53125 -8.49414 21.2402 -8.49023q12.709 0.00488281 21.1797 8.49023l169.729 169.71l169.73 -169.71q8.46777 -8.48242 21.1826 -8.48242t21.1973 8.48242z" />
    <glyph glyph-name="uniE01D" unicode="&#xe01d;" horiz-adv-x="953" 
d="M476.72 540q-55.667 0 -116.314 -24.7197q-60.6465 -24.7207 -107.44 -60q-46.793 -35.2803 -85.6338 -70.5605q-38.8408 -35.2793 -59.7256 -60l-20.8857 -24.7197q7.78516 -9.75293 21.8584 -25.9395q14.0732 -16.1855 57.7803 -57.5615
q43.7061 -41.376 87.5801 -72.998q43.873 -31.623 105.494 -57.5615q61.6201 -25.9395 117.287 -25.9395q55.6729 0 116.322 24.7197q60.6494 24.7207 107.441 60q46.792 35.2803 85.6309 70.5605q38.8389 35.2793 59.7217 60l20.8838 24.7197
q-7.78418 9.75391 -21.8564 25.9395t-57.7764 57.5615t-87.5771 72.998q-43.8721 31.623 -105.495 57.5615q-61.6221 25.9395 -117.295 25.9395zM476.72 600q63.1377 0 131.402 -27.2441q68.2646 -27.2432 116.883 -61.1465q48.6182 -33.9043 96.3271 -78.1133
t64.8926 -63.7227q17.1846 -19.5127 27.4248 -32.3936l29.79 -37.3799l-29.79 -37.3799q-10.2363 -12.8779 -27.4229 -32.3936t-64.8926 -63.7236q-47.7061 -44.207 -96.3252 -78.1123q-48.6182 -33.9043 -116.883 -61.1475q-68.2656 -27.2432 -131.406 -27.2432
q-63.1318 0 -131.409 27.2617t-116.848 61.1143t-96.3604 78.1484q-47.79 44.2969 -64.8662 63.6875t-27.4463 32.4072l-29.79 37.3809l29.79 37.3799q10.2441 12.8857 27.4258 32.3945q17.1826 19.5088 64.8945 63.7207q47.7129 44.2129 96.3301 78.1143
q48.6172 33.9023 116.881 61.1465t131.398 27.2441zM476.72 360q-24.8457 0 -42.4229 -17.5791q-17.5771 -17.5801 -17.5771 -42.4209q0 -24.8398 17.5801 -42.4199t42.4199 -17.5801t42.4199 17.5801t17.5801 42.4199t-17.5801 42.4199t-42.4199 17.5801zM476.72 420
q49.627 0 84.8135 -35.1865t35.1865 -84.8135q0 -49.6279 -35.1865 -84.8145q-35.1855 -35.1855 -84.8135 -35.1855t-84.8135 35.1855q-35.1865 35.1865 -35.1865 84.8145q0 49.627 35.1865 84.8135t84.8135 35.1865z" />
    <glyph glyph-name="uniE01E" unicode="&#xe01e;" horiz-adv-x="920" 
d="M788.01 600q49.4619 0 85.7256 -37.0068q36.2646 -37.0059 36.2646 -86.8027v-360q0 -49.0889 -35.8926 -82.6396t-86.0977 -33.5508h-720h-58.0098v56.1904v480v63.8096h58.0098h73.1406l2.51953 10.1396q12.127 48.5088 51.415 79.1846
q39.2891 30.6758 89.2852 30.6758h95.8994q54.6309 0 97.8027 -33.666t56.7676 -86.334h253.17zM670 60v480h-181.99l-14.2197 44.5703q-8.2207 32.959 -36.6377 54.1943q-28.416 21.2354 -63.0127 21.2354h-6.12988h-83.6299q-29.2559 0 -52.3164 -18.0098
q-23.0605 -18.0107 -30.1631 -46.4004l-13.8906 -55.5898h-118.01v-480h600zM850 116.19v360q0 25.0117 -18.6543 44.4102q-18.6533 19.3994 -43.3359 19.3994h-58.0098v-480h58.0098q25.4463 0 43.7178 15.9395q18.2725 15.9395 18.2725 40.251zM338.01 506.19
q86.8496 0 148.425 -61.5752t61.5752 -148.425q0 -86.8506 -61.5752 -148.425q-61.5752 -61.5752 -148.425 -61.5752t-148.425 61.5752q-61.5752 61.5742 -61.5752 148.425q0 86.8496 61.5752 148.425t148.425 61.5752zM338.01 146.19q62.0195 0 106.01 43.9883
t43.9902 106.012q0 62.0244 -43.9873 106.013q-43.9873 43.9873 -106.013 43.9873t-106.013 -43.9873q-43.9873 -43.9883 -43.9873 -106.013q0 -62.0254 43.9873 -106.013t106.013 -43.9873zM308.01 540q-12.4199 0 -21.21 8.79004t-8.79004 21.21t8.79004 21.21
t21.21 8.79004h60q12.4199 0 21.21 -8.79004t8.79004 -21.21t-8.79004 -21.21t-21.21 -8.79004h-60z" />
    <glyph glyph-name="uniE01F" unicode="&#xe01f;" 
d="M520 300l270 300v-600zM730 156.35v290.45l-129.3 -146.8zM428.01 513.77q37.0586 0 64.5244 -28.21q27.4658 -28.209 27.4658 -65.5996v-119.96v-120.04q0 -36.6875 -27.0908 -61.4385q-27.0908 -24.752 -64.8994 -24.752h-330q-37.4062 0 -62.708 24.5732
t-25.3018 61.6172v240q0 37.792 25.6543 65.8008t62.3555 28.0088h330zM460 183.77v240q0 12 -9 21t-21 9h-330q-12 0 -21 -9t-9 -21v-240q0 -12 9 -21t21 -9h330q12 0 21 9t9 21z" />
    <glyph glyph-name="uniE020" unicode="&#xe020;" horiz-adv-x="742" 
d="M251.5 714.26l480 102.85v-607.109q0 -50.4141 -43.7988 -85.207t-106.951 -34.793t-106.951 34.793t-43.7988 85.207q0 50.4326 43.6865 85.2168q43.6855 34.7832 106.813 34.7832q42.7031 0 91 -23.8906v256.78l-360 -77.1504v-365.739q0 -50.4141 -43.7988 -85.207
t-106.951 -34.793t-106.951 34.793t-43.7988 85.207q0 50.4326 43.6865 85.2158q43.6855 34.7842 106.813 34.7842q42.7031 0 91 -23.8906v498.15zM159.51 60q37.2715 0 63.6357 17.5791q26.3643 17.5781 26.3643 42.4209t-26.3613 42.4219
q-26.3613 17.5781 -63.6387 17.5781t-63.6387 -17.5781q-26.3613 -17.5791 -26.3613 -42.4219q0 -24.8438 26.3613 -42.4219t63.6387 -17.5781zM311.5 547.109l360 77.1504v118.63l-360 -77.1504v-118.63zM579.51 150q37.2715 0 63.6357 17.5791
q26.3643 17.5781 26.3643 42.4209t-26.3613 42.4219q-26.3613 17.5781 -63.6387 17.5781t-63.6387 -17.5781q-26.3613 -17.5791 -26.3613 -42.4219q0 -24.8438 26.3613 -42.4219t63.6387 -17.5781z" />
    <glyph glyph-name="uniE021" unicode="&#xe021;" horiz-adv-x="820" 
d="M753.87 399.06q23.25 0 39.7393 -16.4961q16.4902 -16.4961 16.4902 -39.7539v-180.89q0 -23.25 -16.4902 -39.7402q-16.4893 -16.4902 -39.7393 -16.4902h-47.1807v-105.68l-145.33 105.68h-105.29q-19.1035 0 -34.0898 11.5723q-14.9873 11.5723 -20.0195 29.5381
h-46.4707l-201.859 -146.8v146.8h-65.5303q-32.2969 0 -55.1982 22.8936t-22.9014 55.1865v251.25q0 32.3008 22.9023 55.2051q22.9014 22.9043 55.1973 22.9043h413.62q32.2959 0 55.1973 -22.9043q22.9023 -22.9043 22.9023 -55.2051v-77.0703h174.051zM399.84 342.81
q0 23.2617 16.4844 39.7549q16.4854 16.4922 39.7451 16.4854h66.5303v77.0693q0 8.63379 -6.12402 14.7627q-6.12402 6.12793 -14.7559 6.12793h-413.62q-8.62598 0 -14.7529 -6.12891q-6.12695 -6.12988 -6.12695 -14.7617v-251.239q0 -8.62305 6.12695 -14.7422
q6.12598 -6.11816 14.7529 -6.11816h122.74v-88.9697l123.92 88.9697h65.0801v138.79zM752.51 167.76v162.81q0 5.5957 -3.96777 9.56836q-3.96875 3.97168 -9.5625 3.97168h-268.03q-5.60547 0 -9.56738 -3.9707q-3.96191 -3.96973 -3.96191 -9.56934v-162.81
q0 -5.5957 3.96387 -9.55859q3.96387 -3.96191 9.56543 -3.96191h108.2l80.2998 -57.6602v57.6602h79.5303q5.59961 0 9.56543 3.96484q3.96484 3.96582 3.96484 9.55566z" />
    <glyph glyph-name="uniE022" unicode="&#xe022;" horiz-adv-x="604" 
d="M594.08 292.49q0 -122.263 -84.751 -207.376q-84.751 -85.1143 -206.839 -85.1143q-121.65 0 -207.07 85.2363t-85.4199 207.254q0 120.803 85.4873 205.746t207.003 84.9434q121.942 0 206.766 -84.8232q84.8242 -84.8242 84.8242 -205.866zM452.78 382.49
l-61.2002 60.2891l-89.0898 -90l-90.8906 90.9004l-60.2998 -61.2002l90.8906 -90l-90.8906 -90l60.2998 -61.2002l90.8906 90.9004l89.0898 -90l61.2002 60.2998l-89.9902 90z" />
    <glyph glyph-name="uniE023" unicode="&#xe023;" horiz-adv-x="409" 
d="M205.301 0l-195.301 340.18h388.79z" />
    <glyph glyph-name="uniE024" unicode="&#xe024;" horiz-adv-x="387" 
d="M10 184.49l367.19 186.29v-370.78z" />
    <glyph glyph-name="uniE025" unicode="&#xe025;" horiz-adv-x="387" 
d="M377.19 186.29l-367.19 -186.29v370.78z" />
    <glyph glyph-name="uniE026" unicode="&#xe026;" horiz-adv-x="409" 
d="M203.49 340.189l195.3 -340.189h-388.79z" />
    <glyph glyph-name="uniE027" unicode="&#xe027;" horiz-adv-x="572" 
d="M10 369.899v133.19h151.19v-133.19h-151.19zM28 301.499h115.2v-49.5h-115.2v49.5zM28 175.499h115.2v-49.5h-115.2v49.5zM28 49.5h115.2v-49.5h-115.2v49.5zM209.79 369.899v133.19h151.2v-133.19h-151.2zM227.78 301.499h115.2v-49.5h-115.2v49.5zM227.78 175.499
h115.2v-49.5h-115.2v49.5zM227.78 49.5h115.2v-49.5h-115.2v49.5zM410.48 369.899v133.19h151.189v-133.19h-151.189zM428.48 301.499h115.199v-49.5h-115.199v49.5zM428.48 175.499h115.199v-49.5h-115.199v49.5zM428.48 49.5h115.199v-49.5h-115.199v49.5z" />
    <glyph glyph-name="uniE028" unicode="&#xe028;" horiz-adv-x="631" 
d="M125.2 330.29h-115.2v116.09h115.2v-116.09zM125.2 163.801h-115.2v116.989h115.2v-116.989zM125.2 0h-115.2v115.2h115.2v-115.2zM291.69 330.29h-116.091v116.09h116.091v-116.09zM291.69 163.801h-116.091v116.989h116.091v-116.989zM291.69 0h-116.091v115.2h116.091
v-115.2zM456.39 330.29h-116.1v116.09h116.09zM456.39 164.7h-116.1v116.99h116.09zM456.39 0h-116.1v115.2h116.09zM621.07 330.29h-115.2v116.09h115.2v-116.09zM621.07 164.7h-115.2v116.99h115.2v-116.99zM621.07 0h-115.2v117h115.2v-117z" />
    <glyph glyph-name="uniE029" unicode="&#xe029;" horiz-adv-x="532" 
d="M522.069 91.79q0 -22.3447 -26.3115 -40.7031q-26.3105 -18.3584 -66.5068 -29.0264q-40.1963 -10.667 -82.9941 -16.3633q-42.7979 -5.69727 -80.667 -5.69727q-37.8545 0 -80.5264 5.69629q-42.6709 5.69629 -82.6934 16.3652q-40.0215 10.6689 -66.1953 29.0244
q-26.1748 18.3555 -26.1748 40.7041q0 14.877 10.7998 27.0098q36.9248 75.7568 55.3887 145.536t28.1064 113.301q9.64258 43.5225 28.9951 70.543q33.1182 45.5596 87.29 57.6006q1.3584 17.666 14.125 29.5322q12.7656 11.8672 30.875 11.8672
q17.5908 0 30.6211 -11.9453q13.0312 -11.9453 14.3779 -29.4541q54.1533 -12.0371 87.291 -57.6006q19.3525 -27.0205 28.9941 -70.543q9.64258 -43.5215 28.1064 -113.301t55.3887 -145.536q11.71 -13.1367 11.71 -27.0098zM468.97 109.8
q-44.4189 53.0996 -203.391 53.0996q-158.968 0 -203.399 -53.0996q25.1152 -30.0156 82.4639 -42.416q57.3477 -12.3994 120.936 -11.584q159.104 -0.0214844 203.391 54zM225.09 131.399q0 6.29004 40.5 6.29004t40.5 -6.29004q0 -18.8711 -11.7959 -31.9355
t-28.7041 -13.0645q-16.9072 0 -28.7041 13.0645q-11.7959 13.0654 -11.7959 31.9355z" />
    <glyph glyph-name="uniE02A" unicode="&#xe02a;" horiz-adv-x="710" 
d="M700.27 534.58v-454.48q0 -31.5088 -23.1807 -55.8047q-23.1807 -24.2949 -52.4189 -24.2949h-516.57q-49.0127 0 -73.5557 27.3818q-24.5439 27.3818 -24.5439 86.918v332.08h95.3994v88.2002h594.87zM105.399 397.78h-46.7998v-283.49q0 -61.2002 22.5 -61.2002
q24.2998 0 24.2998 61.2002v283.49zM651.68 485.979h-497.689v-371.68q0 -38.6982 -13.5 -65.7002h484.18q11.3057 0 19.1523 10.4658q7.84766 10.4648 7.84766 21.0342zM345.689 314.99h-114.3v16.1992h114.3v-16.1992zM345.689 261.89h-114.3v16.2002h114.3v-16.2002z
M345.689 210.59h-114.3v16.21h114.3v-16.21zM345.689 161.09h-114.3v16.2002h114.3v-16.2002zM345.689 109.8h-114.3v16.2002h114.3v-16.2002zM248.49 414.88h299.689v-31.5h-299.689v31.5zM390.68 331.189h191.7v-182.689h-191.7v182.689z" />
    <glyph glyph-name="uniE02B" unicode="&#xe02b;" horiz-adv-x="597" 
d="M125.2 330.29h-115.2v116.09h115.2v-116.09zM125.2 163.79h-115.2v117h115.2v-117zM125.2 0h-115.2v115.199h115.2v-115.199zM586.88 349.18h-384.28v58.5h384.28v-58.5zM586.88 183.59h-384.28v58.5h384.28v-58.5zM586.88 27h-384.28v58.5h384.28v-58.5z" />
  </font>
</defs>
</svg>
